<!DOCTYPE svg PUBLIC "-//W3C//DTD SVG 20010904//EN" "http://www.w3.org/TR/2001/REC-SVG-20010904/DTD/svg10.dtd">
<svg version="1.0" xmlns="http://www.w3.org/2000/svg" width="400px" height="400px" viewBox="0 0 4000 4000" preserveAspectRatio="xMidYMid meet">
<g id="layer101" fill="#000000" stroke="none">
 <path d="M420 2001 c0 -930 2 -1691 5 -1691 5 0 274 218 285 230 3 3 68 57 145 120 77 62 142 116 145 120 3 3 79 66 169 139 89 73 175 143 190 156 14 13 83 70 152 127 70 56 211 172 313 256 l187 154 34 -26 c18 -14 39 -32 47 -39 7 -7 76 -64 153 -127 77 -63 142 -117 145 -120 3 -3 79 -66 170 -140 91 -74 167 -137 170 -140 4 -5 218 -181 304 -250 10 -8 23 -20 30 -25 6 -6 74 -62 151 -125 77 -63 154 -127 170 -142 17 -15 33 -28 38 -28 4 0 46 -32 93 -70 47 -39 87 -70 90 -70 2 0 4 173 4 384 l0 384 -87 71 c-49 38 -135 108 -193 153 -58 46 -118 95 -135 110 -16 14 -87 73 -156 130 -172 140 -476 391 -517 425 l-33 29 62 54 c34 29 101 86 148 124 48 39 111 92 141 118 30 25 141 117 245 203 105 87 214 178 244 204 30 25 70 57 90 70 34 23 117 90 168 136 l23 21 -2 372 -3 372 -87 -70 c-48 -38 -90 -70 -93 -70 -5 0 -198 -155 -231 -185 -6 -5 -26 -21 -44 -35 -18 -14 -38 -30 -44 -35 -6 -6 -186 -152 -401 -325 -214 -173 -395 -319 -401 -324 -14 -13 -67 -56 -193 -157 -99 -79 -106 -82 -143 -46 -12 12 -245 203 -617 505 -97 79 -187 154 -201 166 -14 12 -110 91 -215 176 -104 85 -192 157 -195 160 -3 4 -76 64 -162 134 l-158 127 0 -1690z m771 277 c118 -95 228 -184 244 -199 17 -14 45 -39 63 -55 l33 -29 -197 -160 c-108 -88 -235 -190 -280 -227 -46 -38 -88 -68 -94 -68 -7 0 -10 148 -10 461 0 389 2 460 14 456 8 -3 110 -83 227 -179z"/>
 </g>
<g id="layer102" fill="#ffffff" stroke="none">
 <path d="M0 2000 l0 -2000 2000 0 2000 0 0 2000 0 2000 -2000 0 -2000 0 0 -2000z m740 1430 c3 -3 91 -75 195 -160 105 -85 201 -164 215 -176 14 -12 104 -87 201 -166 372 -302 605 -493 617 -505 37 -36 44 -33 143 46 126 101 179 144 193 157 6 5 187 151 401 324 215 173 395 319 401 325 6 5 26 21 44 35 18 14 38 30 44 35 33 30 226 185 231 185 3 0 45 32 93 70 l87 70 3 -372 2 -372 -23 -21 c-51 -46 -134 -113 -168 -136 -20 -13 -60 -45 -90 -70 -30 -26 -139 -117 -244 -204 -104 -86 -215 -178 -245 -203 -30 -26 -93 -79 -141 -118 -47 -38 -114 -95 -148 -124 l-62 -54 33 -29 c41 -34 345 -285 517 -425 69 -57 140 -116 156 -130 17 -15 77 -64 135 -110 58 -45 144 -115 193 -153 l87 -71 0 -384 c0 -211 -2 -384 -4 -384 -3 0 -43 31 -90 70 -47 38 -89 70 -93 70 -5 0 -21 13 -38 28 -16 15 -93 79 -170 142 -77 63 -145 119 -151 125 -7 5 -20 17 -30 25 -86 69 -300 245 -304 250 -3 3 -79 66 -170 140 -91 74 -167 137 -170 140 -3 3 -68 57 -145 120 -77 63 -146 120 -153 127 -8 7 -29 25 -47 39 l-34 26 -187 -154 c-102 -84 -243 -200 -313 -256 -69 -57 -138 -114 -152 -127 -15 -13 -101 -83 -190 -156 -90 -73 -166 -136 -169 -139 -3 -4 -68 -58 -145 -120 -77 -63 -142 -117 -145 -120 -11 -12 -280 -230 -285 -230 -3 0 -5 761 -5 1691 l0 1690 158 -127 c86 -70 159 -130 162 -134z"/>
 <path d="M950 2001 c0 -313 3 -461 10 -461 6 0 48 30 94 68 45 37 172 139 280 227 l197 160 -33 29 c-18 16 -46 41 -63 55 -71 62 -458 373 -471 378 -12 4 -14 -67 -14 -456z"/>
 </g>

</svg>